<?xml version="1.0" encoding="UTF-8"?><svg xmlns="http://www.w3.org/2000/svg" xmlns:xlink="http://www.w3.org/1999/xlink" fill-opacity="1" color-rendering="auto" color-interpolation="auto" text-rendering="auto" stroke="black" stroke-linecap="square" width="988" stroke-miterlimit="10" shape-rendering="auto" stroke-opacity="1" fill="black" stroke-dasharray="none" font-weight="normal" stroke-width="1" height="670" font-family="'Dialog'" font-style="normal" stroke-linejoin="miter" font-size="12px" stroke-dashoffset="0" image-rendering="auto">
  <!--Generated by ySVG 2.5-->
  <defs id="genericDefs"/>
  <g>
    <defs id="defs1">
      <clipPath clipPathUnits="userSpaceOnUse" id="clipPath1">
        <path d="M0 0 L988 0 L988 670 L0 670 L0 0 Z"/>
      </clipPath>
      <clipPath clipPathUnits="userSpaceOnUse" id="clipPath2">
        <path d="M-1085 -710 L-97 -710 L-97 -40 L-1085 -40 L-1085 -710 Z"/>
      </clipPath>
      <clipPath clipPathUnits="userSpaceOnUse" id="clipPath3">
        <path d="M-1069 -159 L-1069 -56 L-862 -56 L-862 -159 Z"/>
      </clipPath>
      <clipPath clipPathUnits="userSpaceOnUse" id="clipPath4">
        <path d="M-1008 -349 L-1008 -246 L-801 -246 L-801 -349 Z"/>
      </clipPath>
      <clipPath clipPathUnits="userSpaceOnUse" id="clipPath5">
        <path d="M-490 -695 L-490 -603 L-283 -603 L-283 -695 Z"/>
      </clipPath>
      <clipPath clipPathUnits="userSpaceOnUse" id="clipPath6">
        <path d="M-865 -695 L-865 -603 L-658 -603 L-658 -695 Z"/>
      </clipPath>
      <clipPath clipPathUnits="userSpaceOnUse" id="clipPath7">
        <path d="M-819 -159 L-819 -56 L-612 -56 L-612 -159 Z"/>
      </clipPath>
      <clipPath clipPathUnits="userSpaceOnUse" id="clipPath8">
        <path d="M-569 -159 L-569 -56 L-362 -56 L-362 -159 Z"/>
      </clipPath>
      <clipPath clipPathUnits="userSpaceOnUse" id="clipPath9">
        <path d="M-319 -159 L-319 -56 L-112 -56 L-112 -159 Z"/>
      </clipPath>
      <clipPath clipPathUnits="userSpaceOnUse" id="clipPath10">
        <path d="M-865 -523 L-865 -420 L-658 -420 L-658 -523 Z"/>
      </clipPath>
      <clipPath clipPathUnits="userSpaceOnUse" id="clipPath11">
        <path d="M-694 -349 L-694 -246 L-487 -246 L-487 -349 Z"/>
      </clipPath>
    </defs>
    <g fill="white" text-rendering="geometricPrecision" shape-rendering="geometricPrecision" transform="translate(1085,710)" stroke="white">
      <rect x="-1085" width="988" height="670" y="-710" clip-path="url(#clipPath2)" stroke="none"/>
    </g>
    <g fill="rgb(255,255,204)" text-rendering="geometricPrecision" shape-rendering="geometricPrecision" transform="matrix(1,0,0,1,1085,710)" stroke="rgb(255,255,204)">
      <rect x="-1069" width="207" height="104" y="-159" clip-path="url(#clipPath2)" stroke="none"/>
    </g>
    <g text-rendering="geometricPrecision" stroke-miterlimit="1.45" shape-rendering="geometricPrecision" transform="matrix(1,0,0,1,1085,710)" stroke-linecap="butt">
      <rect fill="none" x="-1069" width="207" height="104" y="-159" clip-path="url(#clipPath2)"/>
      <text x="-1015.5989" font-size="13px" y="-141.4316" clip-path="url(#clipPath3)" font-family="sans-serif" stroke="none" font-weight="bold" xml:space="preserve">AddExpression</text>
      <line stroke-linecap="square" clip-path="url(#clipPath3)" fill="none" x1="-1068" x2="-863" y1="-133" y2="-133" stroke-miterlimit="10"/>
      <text x="-1064" xml:space="preserve" y="-117.0879" clip-path="url(#clipPath3)" font-family="sans-serif" stroke="none"> -lft : Expression</text>
      <text x="-1064" xml:space="preserve" y="-102.9551" clip-path="url(#clipPath3)" font-family="sans-serif" stroke="none">-rht : Expression</text>
      <line stroke-linecap="square" clip-path="url(#clipPath3)" fill="none" x1="-1068" x2="-863" y1="-95" y2="-95" stroke-miterlimit="10"/>
      <text x="-1064" xml:space="preserve" y="-78.8223" clip-path="url(#clipPath3)" font-family="sans-serif" stroke="none">+toString()</text>
      <text x="-1064" xml:space="preserve" y="-64.6895" clip-path="url(#clipPath3)" font-family="sans-serif" stroke="none">+evaluate(Bindings b)</text>
    </g>
    <g fill="white" text-rendering="geometricPrecision" shape-rendering="geometricPrecision" transform="matrix(1,0,0,1,1085,710)" stroke="white">
      <path d="M-528.5 -687 L-498.5 -687 L-506 -657 L-521 -657 Z" fill-rule="evenodd" clip-path="url(#clipPath2)" stroke="none"/>
      <path fill="none" stroke-miterlimit="1.45" d="M-528.5 -687 L-498.5 -687 L-506 -657 L-521 -657 Z" fill-rule="evenodd" clip-path="url(#clipPath2)" stroke-linecap="butt"/>
    </g>
    <g text-rendering="geometricPrecision" stroke-miterlimit="1.45" shape-rendering="geometricPrecision" font-family="sans-serif" transform="matrix(1,0,0,1,1085,710)" stroke-linecap="butt">
      <text x="-517.2939" xml:space="preserve" y="-667.4648" clip-path="url(#clipPath2)" stroke="none">1</text>
    </g>
    <g fill="rgb(255,255,204)" text-rendering="geometricPrecision" shape-rendering="geometricPrecision" transform="matrix(1,0,0,1,1085,710)" stroke="rgb(255,255,204)">
      <rect x="-1008" width="207" height="104" y="-349" clip-path="url(#clipPath2)" stroke="none"/>
    </g>
    <g text-rendering="geometricPrecision" stroke-miterlimit="1.45" shape-rendering="geometricPrecision" transform="matrix(1,0,0,1,1085,710)" stroke-linecap="butt">
      <rect fill="none" x="-1008" width="207" height="104" y="-349" clip-path="url(#clipPath2)"/>
      <text x="-944.322" font-size="13px" y="-331.4316" clip-path="url(#clipPath4)" font-family="sans-serif" stroke="none" font-weight="bold" xml:space="preserve">Assignment</text>
      <line stroke-linecap="square" clip-path="url(#clipPath4)" fill="none" x1="-1007" x2="-802" y1="-323" y2="-323" stroke-miterlimit="10"/>
      <text x="-1003" xml:space="preserve" y="-307.0879" clip-path="url(#clipPath4)" font-family="sans-serif" stroke="none"> -e : Expression</text>
      <text x="-1003" xml:space="preserve" y="-292.9551" clip-path="url(#clipPath4)" font-family="sans-serif" stroke="none">-id : String</text>
      <line stroke-linecap="square" clip-path="url(#clipPath4)" fill="none" x1="-1007" x2="-802" y1="-285" y2="-285" stroke-miterlimit="10"/>
      <text x="-1003" xml:space="preserve" y="-268.8223" clip-path="url(#clipPath4)" font-family="sans-serif" stroke="none">+toString()</text>
      <text x="-1003" xml:space="preserve" y="-254.6895" clip-path="url(#clipPath4)" font-family="sans-serif" stroke="none">+evaluate(Bindings b)</text>
    </g>
    <g fill="rgb(255,255,204)" text-rendering="geometricPrecision" shape-rendering="geometricPrecision" transform="matrix(1,0,0,1,1085,710)" stroke="rgb(255,255,204)">
      <rect x="-490" width="207" height="93" y="-695" clip-path="url(#clipPath2)" stroke="none"/>
    </g>
    <g text-rendering="geometricPrecision" stroke-miterlimit="1.45" shape-rendering="geometricPrecision" transform="matrix(1,0,0,1,1085,710)" stroke-linecap="butt">
      <rect fill="none" x="-490" width="207" height="93" y="-695" clip-path="url(#clipPath2)"/>
      <text x="-415.6294" font-size="13px" y="-677.4316" clip-path="url(#clipPath5)" font-family="sans-serif" stroke="none" font-weight="bold" xml:space="preserve">Bindings</text>
      <line stroke-linecap="square" clip-path="url(#clipPath5)" fill="none" x1="-489" x2="-284" y1="-669" y2="-669" stroke-miterlimit="10"/>
      <text x="-485" xml:space="preserve" y="-653.0879" clip-path="url(#clipPath5)" font-family="sans-serif" stroke="none">b : Map&lt;String, Double&gt;</text>
      <line stroke-linecap="square" clip-path="url(#clipPath5)" fill="none" x1="-489" x2="-284" y1="-645" y2="-645" stroke-miterlimit="10"/>
      <text x="-485" xml:space="preserve" y="-628.9551" clip-path="url(#clipPath5)" font-family="sans-serif" stroke="none">+addBinding(id, value)</text>
      <text x="-485" xml:space="preserve" y="-614.8223" clip-path="url(#clipPath5)" font-family="sans-serif" stroke="none">+lookupBinding(id) : Double</text>
    </g>
    <g fill="rgb(255,255,204)" text-rendering="geometricPrecision" shape-rendering="geometricPrecision" transform="matrix(1,0,0,1,1085,710)" stroke="rgb(255,255,204)">
      <rect x="-865" width="207" height="93" y="-695" clip-path="url(#clipPath2)" stroke="none"/>
    </g>
    <g text-rendering="geometricPrecision" stroke-miterlimit="1.45" shape-rendering="geometricPrecision" transform="matrix(1,0,0,1,1085,710)" stroke-linecap="butt">
      <rect fill="none" x="-865" width="207" height="93" y="-695" clip-path="url(#clipPath2)"/>
      <text x="-795.4695" font-size="13px" y="-677.4316" clip-path="url(#clipPath6)" font-family="sans-serif" stroke="none" font-weight="bold" xml:space="preserve">Calculator</text>
      <line stroke-linecap="square" clip-path="url(#clipPath6)" fill="none" x1="-864" x2="-659" y1="-669" y2="-669" stroke-miterlimit="10"/>
      <text x="-860" xml:space="preserve" y="-653.0879" clip-path="url(#clipPath6)" font-family="sans-serif" stroke="none">-p : Parser</text>
      <line stroke-linecap="square" clip-path="url(#clipPath6)" fill="none" x1="-864" x2="-659" y1="-645" y2="-645" stroke-miterlimit="10"/>
      <text x="-860" xml:space="preserve" y="-628.9551" clip-path="url(#clipPath6)" font-family="sans-serif" stroke="none">+calculate()</text>
      <text x="-860" xml:space="preserve" y="-614.8223" clip-path="url(#clipPath6)" font-family="sans-serif" stroke="none">+main()    &lt;&lt;static&gt;&gt;</text>
    </g>
    <g fill="rgb(255,255,204)" text-rendering="geometricPrecision" shape-rendering="geometricPrecision" transform="matrix(1,0,0,1,1085,710)" stroke="rgb(255,255,204)">
      <rect x="-819" width="207" height="104" y="-159" clip-path="url(#clipPath2)" stroke="none"/>
    </g>
    <g text-rendering="geometricPrecision" stroke-miterlimit="1.45" shape-rendering="geometricPrecision" transform="matrix(1,0,0,1,1085,710)" stroke-linecap="butt">
      <rect fill="none" x="-819" width="207" height="104" y="-159" clip-path="url(#clipPath2)"/>
      <text x="-773.5525" font-size="13px" y="-141.4316" clip-path="url(#clipPath7)" font-family="sans-serif" stroke="none" font-weight="bold" xml:space="preserve">DivideExpression</text>
      <line stroke-linecap="square" clip-path="url(#clipPath7)" fill="none" x1="-818" x2="-613" y1="-133" y2="-133" stroke-miterlimit="10"/>
      <text x="-814" xml:space="preserve" y="-117.0879" clip-path="url(#clipPath7)" font-family="sans-serif" stroke="none"> -lft : Expression</text>
      <text x="-814" xml:space="preserve" y="-102.9551" clip-path="url(#clipPath7)" font-family="sans-serif" stroke="none">-rht : Expression</text>
      <line stroke-linecap="square" clip-path="url(#clipPath7)" fill="none" x1="-818" x2="-613" y1="-95" y2="-95" stroke-miterlimit="10"/>
      <text x="-814" xml:space="preserve" y="-78.8223" clip-path="url(#clipPath7)" font-family="sans-serif" stroke="none">+toString()</text>
      <text x="-814" xml:space="preserve" y="-64.6895" clip-path="url(#clipPath7)" font-family="sans-serif" stroke="none">+evaluate(Bindings b)</text>
    </g>
    <g fill="rgb(255,255,204)" text-rendering="geometricPrecision" shape-rendering="geometricPrecision" transform="matrix(1,0,0,1,1085,710)" stroke="rgb(255,255,204)">
      <rect x="-569" width="207" height="104" y="-159" clip-path="url(#clipPath2)" stroke="none"/>
    </g>
    <g text-rendering="geometricPrecision" stroke-miterlimit="1.45" shape-rendering="geometricPrecision" transform="matrix(1,0,0,1,1085,710)" stroke-linecap="butt">
      <rect fill="none" x="-569" width="207" height="104" y="-159" clip-path="url(#clipPath2)"/>
      <text x="-477.1035" font-size="13px" y="-141.4316" clip-path="url(#clipPath8)" font-family="sans-serif" stroke="none" font-weight="bold" xml:space="preserve">Etc.</text>
      <line stroke-linecap="square" clip-path="url(#clipPath8)" fill="none" x1="-568" x2="-363" y1="-133" y2="-133" stroke-miterlimit="10"/>
      <text x="-564" xml:space="preserve" y="-117.0879" clip-path="url(#clipPath8)" font-family="sans-serif" stroke="none"> -lft : Expression</text>
      <text x="-564" xml:space="preserve" y="-102.9551" clip-path="url(#clipPath8)" font-family="sans-serif" stroke="none">-rht : Expression</text>
      <line stroke-linecap="square" clip-path="url(#clipPath8)" fill="none" x1="-568" x2="-363" y1="-95" y2="-95" stroke-miterlimit="10"/>
      <text x="-564" xml:space="preserve" y="-78.8223" clip-path="url(#clipPath8)" font-family="sans-serif" stroke="none">+toString()</text>
      <text x="-564" xml:space="preserve" y="-64.6895" clip-path="url(#clipPath8)" font-family="sans-serif" stroke="none">+evaluate(Bindings b)</text>
    </g>
    <g fill="rgb(255,255,204)" text-rendering="geometricPrecision" shape-rendering="geometricPrecision" transform="matrix(1,0,0,1,1085,710)" stroke="rgb(255,255,204)">
      <rect x="-319" width="207" height="104" y="-159" clip-path="url(#clipPath2)" stroke="none"/>
    </g>
    <g text-rendering="geometricPrecision" stroke-miterlimit="1.45" shape-rendering="geometricPrecision" transform="matrix(1,0,0,1,1085,710)" stroke-linecap="butt">
      <rect fill="none" x="-319" width="207" height="104" y="-159" clip-path="url(#clipPath2)"/>
      <text x="-306.0874" font-size="13px" y="-141.4316" clip-path="url(#clipPath9)" font-family="sans-serif" stroke="none" font-weight="bold" xml:space="preserve">DoubleConstantExpression</text>
      <line stroke-linecap="square" clip-path="url(#clipPath9)" fill="none" x1="-318" x2="-113" y1="-133" y2="-133" stroke-miterlimit="10"/>
      <text x="-314" xml:space="preserve" y="-117.0879" clip-path="url(#clipPath9)" font-family="sans-serif" stroke="none"> -val : Double</text>
      <line stroke-linecap="square" clip-path="url(#clipPath9)" fill="none" x1="-318" x2="-113" y1="-109" y2="-109" stroke-miterlimit="10"/>
      <text x="-314" xml:space="preserve" y="-92.9551" clip-path="url(#clipPath9)" font-family="sans-serif" stroke="none">+toString()</text>
      <text x="-314" xml:space="preserve" y="-78.8223" clip-path="url(#clipPath9)" font-family="sans-serif" stroke="none">+evaluate(Bindings b)</text>
    </g>
    <g fill="rgb(255,255,204)" text-rendering="geometricPrecision" shape-rendering="geometricPrecision" transform="matrix(1,0,0,1,1085,710)" stroke="rgb(255,255,204)">
      <rect x="-865" width="207" height="104" y="-523" clip-path="url(#clipPath2)" stroke="none"/>
    </g>
    <g text-rendering="geometricPrecision" stroke-miterlimit="1.45" shape-rendering="geometricPrecision" transform="matrix(1,0,0,1,1085,710)" stroke-linecap="butt">
      <rect fill="none" x="-865" width="207" height="104" y="-523" clip-path="url(#clipPath2)"/>
      <text x="-806.0137" xml:space="preserve" y="-506.3984" clip-path="url(#clipPath10)" font-family="sans-serif" stroke="none">&lt;&lt;interface&gt;&gt;</text>
      <text x="-794.9109" font-size="13px" y="-482.2988" clip-path="url(#clipPath10)" font-family="sans-serif" stroke="none" font-weight="bold" xml:space="preserve">Operation</text>
      <line stroke-linecap="square" clip-path="url(#clipPath10)" fill="none" x1="-864" x2="-659" y1="-474" y2="-474" stroke-miterlimit="10"/>
      <text x="-860" xml:space="preserve" y="-457.9551" clip-path="url(#clipPath10)" font-family="sans-serif" stroke="none"> </text>
      <line stroke-linecap="square" clip-path="url(#clipPath10)" fill="none" x1="-864" x2="-659" y1="-450" y2="-450" stroke-miterlimit="10"/>
      <text x="-860" xml:space="preserve" y="-433.8223" clip-path="url(#clipPath10)" font-family="sans-serif" stroke="none">+evaluate(Bindings b)</text>
    </g>
    <g fill="rgb(255,255,204)" text-rendering="geometricPrecision" shape-rendering="geometricPrecision" transform="matrix(1,0,0,1,1085,710)" stroke="rgb(255,255,204)">
      <rect x="-694" width="207" height="104" y="-349" clip-path="url(#clipPath2)" stroke="none"/>
    </g>
    <g text-rendering="geometricPrecision" stroke-miterlimit="1.45" shape-rendering="geometricPrecision" transform="matrix(1,0,0,1,1085,710)" stroke-linecap="butt">
      <rect fill="none" x="-694" width="207" height="104" y="-349" clip-path="url(#clipPath2)"/>
      <text x="-635.0137" xml:space="preserve" y="-332.3984" clip-path="url(#clipPath11)" font-family="sans-serif" stroke="none">&lt;&lt;interface&gt;&gt;</text>
      <text x="-627.199" font-size="13px" y="-308.2988" clip-path="url(#clipPath11)" font-family="sans-serif" stroke="none" font-weight="bold" xml:space="preserve">Expression</text>
      <line stroke-linecap="square" clip-path="url(#clipPath11)" fill="none" x1="-693" x2="-488" y1="-300" y2="-300" stroke-miterlimit="10"/>
      <text x="-689" xml:space="preserve" y="-283.9551" clip-path="url(#clipPath11)" font-family="sans-serif" stroke="none"> </text>
      <line stroke-linecap="square" clip-path="url(#clipPath11)" fill="none" x1="-693" x2="-488" y1="-276" y2="-276" stroke-miterlimit="10"/>
      <text x="-689" xml:space="preserve" y="-259.8223" clip-path="url(#clipPath11)" font-family="sans-serif" stroke="none"> </text>
    </g>
    <g fill="white" text-rendering="geometricPrecision" shape-rendering="geometricPrecision" transform="matrix(1,0,0,1,1085,710)" stroke="white">
      <path d="M-712.5 -577.5 L-682.5 -577.5 L-690 -547.5 L-705 -547.5 Z" fill-rule="evenodd" clip-path="url(#clipPath2)" stroke="none"/>
      <path fill="none" stroke-miterlimit="1.45" d="M-712.5 -577.5 L-682.5 -577.5 L-690 -547.5 L-705 -547.5 Z" fill-rule="evenodd" clip-path="url(#clipPath2)" stroke-linecap="butt"/>
    </g>
    <g text-rendering="geometricPrecision" stroke-miterlimit="1.45" shape-rendering="geometricPrecision" font-family="sans-serif" transform="matrix(1,0,0,1,1085,710)" stroke-linecap="butt">
      <text x="-756.9727" xml:space="preserve" y="-557.9648" clip-path="url(#clipPath2)" stroke="none">↓ creates, evaluates </text>
      <path fill="none" d="M-650.9996 -648.5 L-498.0026 -648.5" clip-path="url(#clipPath2)"/>
      <path fill="white" d="M-657.9996 -648.5 L-650.9996 -653.5 L-643.9996 -648.5 L-650.9996 -643.5 Z" clip-path="url(#clipPath2)" stroke="none"/>
      <path fill="none" d="M-657.9996 -648.5 L-650.9996 -653.5 L-643.9996 -648.5 L-650.9996 -643.5 Z" clip-path="url(#clipPath2)"/>
      <path d="M-490.0026 -648.5 L-502.0026 -653.5 L-499.0026 -648.5 L-502.0026 -643.5 Z" clip-path="url(#clipPath2)" stroke="none"/>
      <path fill="none" d="M-761.5 -602.0016 L-761.5 -530.972" clip-path="url(#clipPath2)"/>
      <path d="M-761.5 -522.972 L-756.5 -534.972 L-761.5 -531.972 L-766.5 -534.972 Z" clip-path="url(#clipPath2)" stroke="none"/>
      <path fill="none" stroke-dasharray="6,2" d="M-904.5 -348.9746 L-904.5 -389 L-761.5 -389 L-761.5 -403.9893" clip-path="url(#clipPath2)"/>
    </g>
    <g stroke-linecap="butt" transform="matrix(1,0,0,1,1085,710)" fill="white" text-rendering="geometricPrecision" shape-rendering="geometricPrecision" stroke-dasharray="6,2" stroke="white" stroke-miterlimit="1.45">
      <path d="M-761.5 -418.9893 L-767.5 -402.9893 L-755.5 -402.9893 Z" stroke="none" clip-path="url(#clipPath2)"/>
      <path fill="none" stroke-dasharray="none" d="M-761.5 -418.9893 L-767.5 -402.9893 L-755.5 -402.9893 Z" clip-path="url(#clipPath2)" stroke="black"/>
      <path fill="none" d="M-965.5 -159.0386 L-965.5 -194 L-590.5 -194 L-590.5 -230.0222" clip-path="url(#clipPath2)" stroke="black"/>
      <path d="M-590.5 -245.0222 L-596.5 -229.0222 L-584.5 -229.0222 Z" clip-path="url(#clipPath2)" stroke="none"/>
      <path fill="none" stroke-dasharray="none" d="M-590.5 -245.0222 L-596.5 -229.0222 L-584.5 -229.0222 Z" clip-path="url(#clipPath2)" stroke="black"/>
      <path fill="none" d="M-715.5 -159.0386 L-715.5 -194 L-590.5 -194 L-590.5 -230.0222" clip-path="url(#clipPath2)" stroke="black"/>
      <path d="M-590.5 -245.0222 L-596.5 -229.0222 L-584.5 -229.0222 Z" clip-path="url(#clipPath2)" stroke="none"/>
      <path fill="none" stroke-dasharray="none" d="M-590.5 -245.0222 L-596.5 -229.0222 L-584.5 -229.0222 Z" clip-path="url(#clipPath2)" stroke="black"/>
      <path fill="none" d="M-465.5 -159.0386 L-465.5 -194 L-590.5 -194 L-590.5 -230.0222" clip-path="url(#clipPath2)" stroke="black"/>
      <path d="M-590.5 -245.0222 L-596.5 -229.0222 L-584.5 -229.0222 Z" clip-path="url(#clipPath2)" stroke="none"/>
      <path fill="none" stroke-dasharray="none" d="M-590.5 -245.0222 L-596.5 -229.0222 L-584.5 -229.0222 Z" clip-path="url(#clipPath2)" stroke="black"/>
      <path fill="none" d="M-215.5 -159.0386 L-215.5 -194 L-590.5 -194 L-590.5 -230.0222" clip-path="url(#clipPath2)" stroke="black"/>
      <path d="M-590.5 -245.0222 L-596.5 -229.0222 L-584.5 -229.0222 Z" clip-path="url(#clipPath2)" stroke="none"/>
      <path fill="none" stroke-dasharray="none" d="M-590.5 -245.0222 L-596.5 -229.0222 L-584.5 -229.0222 Z" clip-path="url(#clipPath2)" stroke="black"/>
      <path fill="none" d="M-590.5 -348.9746 L-590.5 -389 L-761.5 -389 L-761.5 -403.9893" clip-path="url(#clipPath2)" stroke="black"/>
      <path d="M-761.5 -418.9893 L-767.5 -402.9893 L-755.5 -402.9893 Z" clip-path="url(#clipPath2)" stroke="none"/>
      <path fill="none" stroke-dasharray="none" d="M-761.5 -418.9893 L-767.5 -402.9893 L-755.5 -402.9893 Z" clip-path="url(#clipPath2)" stroke="black"/>
    </g>
  </g>
</svg>
